<svg width="110" height="110" viewBox="0 0 110 110" fill="none" xmlns="http://www.w3.org/2000/svg">
<rect width="110" height="110" rx="55" fill="#EBF2F0"/>
<path d="M38.3214 71.758V38.242C38.3214 36.9261 39.3882 35.8594 40.7041 35.8594H71.6785V69.3753H40.7041C39.3882 69.3753 38.3214 70.4421 38.3214 71.758ZM38.3214 71.758C38.3214 73.0739 39.3881 74.1406 40.7041 74.1406H71.6785M69.2959 69.3753V74.1406M43.0867 35.8594V69.3753" stroke="#33836E" stroke-width="1.71875" stroke-miterlimit="10" stroke-linecap="round" stroke-linejoin="round"/>
<path d="M57.3827 45.4694V62.148M47.8521 47.8521H66.9133M52.6174 62.148H62.148M50.2347 47.8521L47.8521 52.6174C47.8521 53.9333 48.9188 55.0001 50.2347 55.0001C51.5506 55.0001 52.6174 53.9333 52.6174 52.6174L50.2347 47.8521ZM64.5306 47.8521L66.9133 52.6174C66.9133 53.9333 65.8466 55.0001 64.5306 55.0001C63.2147 55.0001 62.148 53.9333 62.148 52.6174L64.5306 47.8521Z" stroke="#33836E" stroke-width="1.71875" stroke-miterlimit="10" stroke-linecap="round" stroke-linejoin="round"/>
</svg>
